<?xml version="1.0" encoding="UTF-8"?>
<svg version="1.1" xmlns="http://www.w3.org/2000/svg" width="1024" height="1024">
<path d="M0 0 C1.75723267 0.46774368 3.5149055 0.93383643 5.27297974 1.39840698 C9.01173033 2.38959311 12.74751386 3.39102363 16.48123169 4.40100098 C22.40015723 6.0017639 28.325161 7.57909078 34.25170898 9.15136719 C35.74386791 9.54731583 35.74386791 9.54731583 37.26617146 9.95126343 C39.2810055 10.48589361 41.29585518 11.02046488 43.31072044 11.55497742 C46.34677387 12.36121533 49.3822268 13.16968072 52.41755676 13.9786377 C68.96370085 18.3845674 85.54980271 22.6166622 102.15887451 26.77804565 C128.06307337 33.26900519 153.8984263 39.9942856 179.69140625 46.9140625 C180.82762861 47.21879234 180.82762861 47.21879234 181.98680496 47.52967834 C190.83425249 49.90316347 199.67816573 52.28924035 208.51800537 54.69091797 C211.56715033 55.51709145 214.6183542 56.33505308 217.67041016 57.15039062 C219.29077635 57.58822261 220.91106478 58.02634254 222.53125 58.46484375 C223.2187886 58.64606277 223.90632721 58.8272818 224.61470032 59.01399231 C233.37898675 61.40968755 240.95017023 65.82340097 245.87890625 73.6015625 C251.46878539 83.96030729 250.46353857 92.75375512 247.21272278 103.79954529 C246.81913623 105.08648833 246.42530458 106.37335644 246.03125 107.66015625 C245.62241999 109.03142335 245.21483273 110.40306149 244.80839539 111.77503967 C243.7186113 115.44197132 242.61256615 119.10380743 241.5034256 122.7649231 C240.35014183 126.58246924 239.21245936 130.40465468 238.07373047 134.2265625 C236.45877034 139.64248624 234.83946039 145.05706817 233.21395111 150.46983528 C229.5703849 162.60351839 225.99743881 174.75745646 222.43704224 186.915802 C218.82556165 199.24552924 215.1987644 211.57078671 211.52734375 223.8828125 C211.27497955 224.73363403 211.02261536 225.58445557 210.76260376 226.46105957 C208.99472466 232.36992567 208.99472466 232.36992567 207.87890625 234.6015625 C208.71669617 234.59045944 209.55448608 234.57935638 210.41766357 234.56791687 C218.36055314 234.46722033 226.30322457 234.39134858 234.24660873 234.34250164 C238.32923638 234.31654339 242.41133123 234.28140242 246.49365234 234.22436523 C250.44242749 234.16954692 254.39069421 234.14003876 258.33982086 234.12717628 C259.83717083 234.11802472 261.33449684 234.10015671 262.83162689 234.07291222 C274.97731349 233.86092519 285.99094009 235.71778191 295.09082031 244.42773438 C298.79633678 248.93263862 301.21540418 254.13181086 303.75390625 259.3515625 C304.36033557 260.5645849 304.96867677 261.77665324 305.57885742 262.98779297 C306.79314032 265.40137582 307.99958344 267.81860524 309.19970703 270.23925781 C311.4630999 274.77130879 313.81601649 279.25248609 316.19140625 283.7265625 C316.98980101 285.2381663 317.78798284 286.74988258 318.5859375 288.26171875 C319.15755615 289.34283936 319.15755615 289.34283936 319.74072266 290.44580078 C320.87744897 292.59880236 322.00949917 294.75420789 323.140625 296.91015625 C326.94577149 304.14937704 330.82441346 311.33854162 334.81640625 318.4765625 C343.52178332 334.07797035 351.75244572 349.87890886 359.20213318 366.12338257 C360.43717165 368.68525936 361.71839471 371.13968732 363.09829712 373.62010193 C369.71656591 385.89979373 371.16412139 395.99238485 370.8984375 409.79296875 C370.89177774 411.75967062 370.88856916 413.72638683 370.88859558 415.69309998 C370.87939402 419.77541559 370.84066047 423.85591183 370.77758789 427.93774414 C370.69786517 433.14592004 370.67592251 438.35232512 370.67374134 443.56105137 C370.66875268 447.60628673 370.6424345 451.65115059 370.60886192 455.69624138 C370.59372979 457.61658711 370.58299014 459.53697311 370.57691383 461.45736885 C370.50938391 474.87823358 369.75979382 486.4595061 359.87890625 496.6015625 C354.41408516 500.94638492 349.01518709 504.6015625 341.87890625 504.6015625 C341.87982804 505.21934098 341.88074984 505.83711946 341.88169956 506.47361851 C341.94333796 548.49967326 341.95376495 590.52553327 341.88807136 632.5515902 C341.88116976 636.98355037 341.87545762 641.41551057 341.87036133 645.84747314 C341.85549771 657.49989405 341.81706446 669.15159788 341.72531128 680.80368042 C341.70036634 684.06165542 341.68682707 687.31935559 341.68362427 690.5774231 C341.67945588 694.32566136 341.65204454 698.07297504 341.60553741 701.82092094 C341.58695474 703.75357829 341.59172114 705.68641888 341.59783936 707.61915588 C341.3801544 720.40245376 336.66214592 730.49402452 327.91796875 739.65625 C317.53804682 749.58650022 305.41657789 753.92603805 291.26319599 753.85883141 C290.3208126 753.86233748 289.3784292 753.86584355 288.40748873 753.86945587 C285.24973424 753.87875962 282.09216458 753.87384914 278.93440247 753.86898804 C276.6474973 753.87272481 274.36059341 753.87732644 272.07369155 753.88271868 C265.78897624 753.89496076 259.50431411 753.89468678 253.21958959 753.89232993 C247.13775154 753.89196396 241.05593345 753.90094415 234.97410271 753.90955571 C220.99836569 753.92889189 207.02264335 753.9345238 193.04689453 753.93566982 C182.25295224 753.93658915 171.45901571 753.9407071 160.6650753 753.94707108 C157.55725772 753.94886619 154.44944013 753.95064581 151.34162253 753.95242083 C150.18267687 753.95308398 150.18267687 753.95308398 149.00031816 753.95376052 C127.2690029 753.96606808 105.53768964 753.97396173 83.80637074 753.97307396 C82.98713926 753.9730428 82.16790778 753.97301164 81.32385111 753.97297954 C77.17171638 753.97281333 73.01958166 753.97261525 68.86744694 753.97241013 C68.04282971 753.97237024 67.21821248 753.97233035 66.36860684 753.97228925 C64.70102965 753.97220837 63.03345246 753.97212478 61.36587527 753.97203846 C35.42447711 753.97081312 9.48313124 753.98582353 -16.45825195 754.01318359 C-45.60884564 754.04391577 -74.75940497 754.06111539 -103.91001588 754.05925715 C-107.01940525 754.05910789 -110.12879461 754.05901048 -113.23818398 754.05894852 C-114.386584 754.05891355 -114.386584 754.05891355 -115.55818402 754.05887788 C-127.86990657 754.05881638 -140.18158366 754.07157919 -152.4932927 754.08881305 C-164.87085404 754.10578051 -177.248349 754.10773467 -189.62591555 754.0945944 C-196.3292519 754.08786138 -203.03240362 754.08796421 -209.73573494 754.1053009 C-215.87528319 754.12101611 -222.01453634 754.11818337 -228.15407733 754.10073264 C-230.37209113 754.09765938 -232.59012686 754.10130734 -234.80811479 754.11245279 C-252.19048903 754.1939968 -266.94982596 752.87530963 -280.40625 740.5 C-288.27484055 732.17547243 -292.28129154 723.44564318 -292.24134827 712.04060364 C-292.24220269 711.15599305 -292.24305712 710.27138247 -292.24393743 709.3599655 C-292.24558966 706.38424376 -292.24007503 703.40857791 -292.23461914 700.43286133 C-292.23433719 698.30436708 -292.23449516 696.17587273 -292.23506165 694.04737854 C-292.2353493 688.25847614 -292.22945766 682.46959433 -292.22248769 676.68069673 C-292.21624891 670.6348444 -292.21564993 664.58899164 -292.21446228 658.5431366 C-292.21135052 647.08970811 -292.2031392 635.63628914 -292.19311279 624.18286484 C-292.18194686 611.1455597 -292.17643999 598.10825411 -292.17141736 585.07094538 C-292.16095647 558.24781248 -292.14336001 531.42468802 -292.12109375 504.6015625 C-293.05969238 504.45912109 -293.99829102 504.31667969 -294.96533203 504.16992188 C-304.03495228 502.53646404 -310.84215039 495.78679096 -316.12109375 488.6015625 C-320.68061774 481.27375608 -322.42222525 473.94583954 -322.41162109 465.36230469 C-322.41833832 464.56940536 -322.42505554 463.77650604 -322.43197632 462.95957947 C-322.45086858 460.35580051 -322.45487626 457.7522806 -322.45703125 455.1484375 C-322.46346602 453.32391253 -322.47019488 451.49938858 -322.47720337 449.67486572 C-322.48915477 445.85532237 -322.49288647 442.03586931 -322.49169922 438.21630859 C-322.49149633 433.34659476 -322.5187773 428.47746643 -322.55324364 423.60789108 C-322.57559584 419.83981726 -322.5795342 416.07188239 -322.57847977 412.30374908 C-322.58082403 410.5097782 -322.58958055 408.71580279 -322.6051445 406.92189789 C-322.68233903 397.10431572 -322.59147782 388.59340015 -318.12109375 379.6015625 C-317.81686493 378.9663266 -317.51263611 378.3310907 -317.19918823 377.67660522 C-316.35594356 376.00551505 -315.43492125 374.37437539 -314.51171875 372.74609375 C-314.18121521 372.15591965 -313.85071167 371.56574554 -313.51019287 370.95768738 C-312.47149965 369.10535928 -311.42220678 367.25936609 -310.37109375 365.4140625 C-305.0530472 356.0217874 -300.00616371 346.55305799 -295.23950195 336.86880493 C-293.13349397 332.59949553 -291.0043523 328.34168724 -288.87890625 324.08203125 C-287.94790664 322.21549979 -287.01691717 320.34896328 -286.0859375 318.48242188 C-285.61784668 317.54422607 -285.14975586 316.60603027 -284.66748047 315.6394043 C-283.72274737 313.74490774 -282.77873243 311.85005287 -281.83544922 309.95483398 C-275.76485933 297.75988552 -269.57363808 285.64165848 -263.18432617 273.61056519 C-261.71977268 270.84325689 -260.2787996 268.06382194 -258.8359375 265.28515625 C-245.70034508 240.29142378 -245.70034508 240.29142378 -233.12109375 234.6015625 C-229.26114595 233.89932274 -225.48001533 233.91015318 -221.56445312 233.94213867 C-220.43187073 233.93165497 -219.29928833 233.92117126 -218.13238525 233.91036987 C-214.4095901 233.88169685 -210.68772922 233.88790288 -206.96484375 233.89453125 C-204.37551716 233.88141165 -201.7862008 233.86610663 -199.19689941 233.84870911 C-193.09137842 233.81294301 -186.98617362 233.79912634 -180.8805604 233.7960847 C-173.92514055 233.79138434 -166.96994247 233.75842987 -160.01462078 233.72318685 C-145.71681293 233.6513676 -131.41906993 233.61475406 -117.12109375 233.6015625 C-116.72266769 232.20068893 -116.72266769 232.20068893 -116.31619263 230.77151489 C-111.24954448 212.96441593 -106.14361246 195.17181115 -100.87097168 177.42440796 C-95.03467122 157.75936531 -89.39148181 138.04499467 -83.87109375 118.2890625 C-77.96151654 97.14997053 -72.05051025 76.01402448 -65.82092285 54.96655273 C-65.33402068 53.32112405 -64.84800224 51.67543371 -64.3626709 50.02954102 C-62.7688174 44.62665616 -61.15987985 39.2286167 -59.53161621 33.83599854 C-59.01578048 32.12243793 -58.50369524 30.40774295 -57.99572754 28.6918335 C-54.25287301 16.07434691 -50.69398863 5.75420153 -39.1640625 -1.65625 C-26.85724482 -8.18639816 -12.52415051 -3.43423112 0 0 Z " fill="#010101" transform="translate(488.12109375,137.3984375)"/>
<path d="M0 0 C189.75 0 379.5 0 575 0 C575 205 575 205 571 213 C565.61167914 217.21528786 561.17882323 217.57536134 554.48778439 217.50336456 C553.54445766 217.50917833 552.60113093 217.51499209 551.62921855 217.52098203 C548.46210203 217.53560247 545.29575798 217.52168682 542.12864685 217.50793457 C539.83761338 217.51254265 537.54658287 217.51889493 535.25555855 217.52684355 C528.95500399 217.54357247 522.65469117 217.53527416 516.35413563 217.52289867 C510.25877058 217.5128411 504.16343012 217.525431 498.06807193 217.53548814 C484.83124787 217.55655536 471.59450102 217.55472394 458.35766961 217.54317249 C446.774597 217.53311373 435.19155271 217.53048184 423.60847664 217.53526306 C422.45637083 217.53572137 422.45637083 217.53572137 421.28099016 217.53618894 C418.16322104 217.53743428 415.04545193 217.53870787 411.92768284 217.540028 C382.67652166 217.55226598 353.42540967 217.5411668 324.17425608 217.51964041 C298.17937679 217.50065586 272.18457587 217.50235785 246.18969727 217.52148438 C216.99082886 217.54289647 187.79200391 217.55139999 158.59312874 217.53903532 C155.4813217 217.53775243 152.36951465 217.53650107 149.2577076 217.53526306 C148.49148912 217.53494675 147.72527064 217.53463044 146.93583343 217.53430455 C135.35859727 217.52975218 123.7813925 217.53508032 112.20416069 217.54518127 C99.04280088 217.55660704 85.88153041 217.55378304 72.72018176 217.5320583 C66.00152472 217.5213344 59.28303672 217.51746467 52.56437874 217.53065491 C46.41897773 217.54253752 40.27388437 217.53608433 34.12851144 217.5147447 C31.90050255 217.51026113 29.6724679 217.51258394 27.44447546 217.52224785 C24.42473469 217.53434544 21.40605889 217.52200373 18.38637447 217.50336456 C17.07740142 217.51741156 17.07740142 217.51741156 15.74198446 217.53174233 C10.37011036 217.46510223 7.19024406 216.67499366 3 213 C-33.53282167 152.11196389 0 71.0070419 0 0 Z " fill="#FEFEFE" transform="translate(225,644)"/>
<path d="M0 0 C15.47360981 2.95817195 30.63965369 6.98854653 45.84329224 11.08169556 C53.34191428 13.09991086 60.84606854 15.0973556 68.3515625 17.08984375 C69.1193786 17.29373404 69.88719471 17.49762432 70.67827797 17.7076931 C90.40753172 22.94085705 110.20929246 27.87917974 130.0222168 32.78417969 C143.37592002 36.09020553 156.71516585 39.42645182 170 43 C170.89762054 43.2413266 171.79524109 43.4826532 172.72006226 43.73129272 C179.75329249 45.62446205 186.78311285 47.53012051 193.8125 49.4375 C195.85219741 49.99029392 197.8919109 50.54302846 199.93164062 51.09570312 C203.95433655 52.18587781 207.9766006 53.27762543 211.99853516 54.37060547 C216.11169423 55.48831449 220.22612233 56.60120483 224.34130859 57.71142578 C226.35645708 58.25679245 228.37159424 58.80220099 230.38671875 59.34765625 C231.32586624 59.60010605 232.26501373 59.85255585 233.23262024 60.11265564 C234.09389023 60.34626297 234.95516022 60.5798703 235.8425293 60.82055664 C236.59978806 61.02491837 237.35704681 61.22928009 238.13725281 61.43983459 C240 62 240 62 242 63 C241.29421313 69.75208856 239.40204133 76.10120344 237.53515625 82.61328125 C237.1866713 83.84185852 236.83818634 85.07043579 236.47914124 86.33624268 C235.54052843 89.64413029 234.59605738 92.95031769 233.65024567 96.25615311 C232.86000035 99.02098591 232.07323309 101.78680375 231.28638077 104.55260372 C226.94475542 119.81076513 222.55199702 135.05220214 218.02514648 150.2565918 C215.13672028 159.99403788 212.35600153 169.7612887 209.59375 179.53515625 C209.39454075 180.24000719 209.1953315 180.94485813 208.9900856 181.67106819 C207.9559353 185.33076949 206.92226355 188.99060584 205.88873291 192.65048218 C198.49243307 218.8402216 190.95400353 244.97299435 183 271 C180.69 278.59 178.38 286.18 176 294 C89.21 294 2.42 294 -87 294 C-85.06181699 286.24726796 -83.07562608 278.56949877 -80.83984375 270.90625 C-80.53789597 269.86563919 -80.23594818 268.82502838 -79.92485046 267.75288391 C-78.93170871 264.33448115 -77.93479053 260.91719451 -76.9375 257.5 C-76.59184998 256.31248138 -76.24619995 255.12496277 -75.89007568 253.90145874 C-70.05437885 233.8569134 -64.07042336 213.85896111 -58.03959274 193.87242508 C-53.5328137 178.93566918 -49.07843928 163.99732493 -45 148.9375 C-40.51098571 132.37196591 -35.46314029 115.98519989 -30.41452026 99.58285522 C-25.74809677 84.41596166 -21.15646406 69.2316335 -16.71875 53.99609375 C-16.50155745 53.25069651 -16.28436489 52.50529926 -16.06059074 51.73731422 C-13.93338182 44.43339837 -11.81416997 37.12721063 -9.70741463 29.81736851 C-8.92956914 27.12112228 -8.14841672 24.42584064 -7.36669922 21.7307148 C-6.83344643 19.88703994 -6.30518984 18.0419223 -5.77709961 16.19676208 C-4.15798473 10.61516566 -2.46287946 5.26799764 0 0 Z " fill="#FEFEFE" transform="translate(464,163)"/>
<path d="M0 0 C3.82343956 0.01053203 7.6468868 0.0148591 11.47033691 0.01983643 C18.87204902 0.03032234 26.27372568 0.0472101 33.67541504 0.06866455 C33.29731689 1.31889404 32.91921875 2.56912354 32.52966309 3.85723877 C31.11500149 8.5351024 29.70048517 13.21300995 28.28601074 17.89093018 C27.67602379 19.9081946 27.06599845 21.92544742 26.45593262 23.94268799 C25.57456309 26.8570448 24.69333572 29.77144456 23.81213379 32.68585205 C23.40882088 34.01929153 23.40882088 34.01929153 22.99736023 35.37966919 C22.73731705 36.23980621 22.47727386 37.09994324 22.20935059 37.98614502 C21.95688568 38.81885925 21.70442078 39.65157349 21.44430542 40.50952148 C20.90475521 42.30533819 20.37341825 44.10363329 19.84817505 45.90368652 C19.58209442 46.81164978 19.31601379 47.71961304 19.04187012 48.65509033 C18.68407219 49.8893425 18.68407219 49.8893425 18.31904602 51.14852905 C17.67541504 53.06866455 17.67541504 53.06866455 16.67541504 54.06866455 C14.63586564 54.17854754 12.59282589 54.22459855 10.55041504 54.2444458 C9.28584473 54.26829346 8.02127441 54.29214111 6.71838379 54.31671143 C4.05397891 54.36289444 1.39112314 54.39069194 -1.27380371 54.41046143 C-8.54515193 54.56853421 -15.17727767 54.80130301 -21.32458496 59.06866455 C-24.16909002 62.18674536 -25.21638013 65.32475631 -25.82458496 69.50616455 C-25.21463099 73.85208657 -24.12348557 77.62616647 -21.32458496 81.06866455 C-16.86173396 83.73514647 -13.57225201 84.44454976 -8.40296173 84.44898129 C-7.72755189 84.4536412 -7.05214205 84.45830112 -6.35626525 84.46310225 C-4.09457048 84.47504682 -1.83347706 84.46565932 0.42822266 84.4563446 C2.06667429 84.46051776 3.70512304 84.46599518 5.34356642 84.47266442 C9.84490897 84.48713998 14.34606876 84.48286773 18.84742141 84.4754976 C23.70229937 84.47077351 28.55713735 84.483269 33.41200256 84.49351501 C42.92229215 84.5107227 52.43251573 84.51153901 61.94281685 84.50630211 C69.67098608 84.50226318 77.39913578 84.50370067 85.12730408 84.50905037 C86.22657721 84.50979879 87.32585035 84.51054721 88.45843479 84.51131831 C90.6914802 84.51284976 92.92452561 84.51438811 95.15757102 84.51593328 C116.10436347 84.52966522 137.05111859 84.52421555 157.9979102 84.51274807 C177.16999668 84.50281288 196.34198669 84.51576009 215.51405829 84.53968226 C235.19232321 84.5640514 254.87054316 84.57368664 274.54882288 84.56702954 C285.59979209 84.56353272 296.65068707 84.56579994 307.7016449 84.58328056 C317.10810398 84.59797514 326.51443655 84.59867387 335.92089307 84.58120965 C340.72163904 84.57267501 345.52215875 84.57061008 350.32289314 84.58586121 C354.71602041 84.5996449 359.10872624 84.59502706 363.50182873 84.57562197 C365.09259227 84.57184218 366.68338906 84.57484056 368.27412313 84.58523362 C370.43452287 84.59834693 372.59345574 84.58687317 374.75379181 84.5692358 C375.95425282 84.56912847 377.15471383 84.56902113 378.39155245 84.56891054 C383.24517829 83.82953525 386.38760025 81.57111514 389.55041504 77.88116455 C391.52117157 72.95427321 391.52117157 68.18305589 389.55041504 63.25616455 C385.91332818 59.01289655 382.14614921 56.86660851 376.67541504 56.06866455 C373.95485689 55.92090934 371.2531365 55.81375751 368.53088379 55.7522583 C367.76109695 55.7314772 366.99131012 55.71069611 366.19819641 55.68928528 C363.75318837 55.62420406 361.30807821 55.56509864 358.86291504 55.50616455 C357.19949327 55.46293987 355.5360816 55.41932434 353.87268066 55.37530518 C349.80702856 55.26856548 345.74127433 55.16718284 341.67541504 55.06866455 C344.32236253 43.48654301 347.89842682 32.17547142 351.36291504 20.81866455 C351.97581427 18.8018192 352.58844669 16.78489275 353.20080566 14.7678833 C354.68926686 9.86720302 356.18133722 4.96763525 357.67541504 0.06866455 C366.89052856 -0.19551195 376.10144351 -0.36636732 385.32019615 -0.42099094 C389.60228618 -0.44923606 393.87906886 -0.50853221 398.15930176 -0.64105225 C425.64991074 -1.45969662 425.64991074 -1.45969662 432.12329102 2.60614014 C435.80953792 6.4426651 437.5112115 10.83831313 438.98773193 15.88204956 C439.9865067 19.05783774 441.61435549 21.76480282 443.30041504 24.62335205 C444.42978032 26.72778604 445.55467585 28.83462401 446.67541504 30.94366455 C447.297146 32.10784912 447.91887695 33.27203369 448.55944824 34.47149658 C454.1625501 44.99251352 459.59300347 55.60168772 465.02407837 66.21218872 C471.37350777 78.61187734 477.9146781 90.88762101 484.67541504 103.06866455 C486.25659076 105.92590272 487.83633436 108.78391669 489.41394043 111.64312744 C490.39897283 113.42751419 491.3863278 115.2106214 492.37634277 116.99224854 C492.81019287 117.77672363 493.24404297 118.56119873 493.69104004 119.3694458 C494.07550293 120.0620752 494.45996582 120.75470459 494.8560791 121.46832275 C495.67541504 123.06866455 495.67541504 123.06866455 495.67541504 124.06866455 C454.3854154 125.01958636 413.09782584 125.17261659 371.79821777 125.18218994 C370.7816933 125.18243913 370.7816933 125.18243913 369.74463298 125.18269335 C352.37679232 125.18670558 335.00895726 125.18168593 317.64111864 125.17330004 C306.10550837 125.16773021 294.56989999 125.16454983 283.03428841 125.16354179 C282.26101594 125.16347305 281.48774347 125.16340431 280.69103851 125.16333349 C276.76165562 125.16299501 272.83227274 125.16269368 268.90288986 125.16240662 C241.29752237 125.16032367 213.69215783 125.15363607 186.08679199 125.144104 C159.32116715 125.13487278 132.55554312 125.12781233 105.78991699 125.12359619 C104.96030083 125.12346467 104.13068466 125.12333314 103.27592861 125.12319763 C94.94219654 125.12187875 86.60846447 125.12060299 78.27473239 125.11935877 C61.30820066 125.11682469 44.34166898 125.11400345 27.37513733 125.11100769 C26.59558189 125.1108704 25.81602645 125.11073311 25.01284812 125.11059166 C-26.76629748 125.10143984 -78.54544138 125.08557954 -130.32458496 125.06866455 C-129.78097195 123.98180674 -129.23735893 122.89494892 -128.6772728 121.77515602 C-127.95389214 120.32869256 -127.2305151 118.88222729 -126.50714111 117.4357605 C-126.15005255 116.7218493 -125.79296398 116.0079381 -125.42505455 115.27239323 C-122.96480039 110.35260076 -120.5124773 105.42893555 -118.0668335 100.50186157 C-116.08998692 96.52036135 -114.10807367 92.54138778 -112.12634277 88.56231689 C-111.0975428 86.49468146 -110.07018229 84.42632911 -109.04431152 82.35723877 C-102.19661534 68.54998462 -95.09131649 54.92559281 -87.63064575 41.43948364 C-81.79104997 30.8391921 -76.28853865 20.13684925 -71.24182129 9.13433838 C-70.88885986 8.37145508 -70.53589844 7.60857178 -70.17224121 6.8225708 C-69.86294678 6.14524902 -69.55365234 5.46792725 -69.23498535 4.77008057 C-68.32458496 3.06866455 -68.32458496 3.06866455 -66.32458496 1.06866455 C-63.63258362 0.75080872 -63.63258362 0.75080872 -60.1607666 0.65679932 C-58.86158798 0.61836411 -57.56240936 0.57992889 -56.22386169 0.54032898 C-54.79000054 0.50884266 -53.35612646 0.47794026 -51.92224121 0.4475708 C-50.43525976 0.40973778 -48.94828576 0.37161112 -47.46131897 0.33320618 C-31.64244788 -0.05046176 -15.82241791 -0.04851357 0 0 Z " fill="#FEFEFE" transform="translate(329.3245849609375,401.93133544921875)"/>
<path d="M0 0 C208.56 0 417.12 0 632 0 C632 49 632 49 629 55 C625.87907696 57.08061536 625.20513281 57.2503215 621.66411173 57.25299966 C620.77136573 57.25851915 619.87861973 57.26403864 618.95882082 57.26972538 C617.97504127 57.26561475 616.99126172 57.26150411 615.97767067 57.25726891 C614.40707038 57.26252802 614.40707038 57.26252802 612.80474079 57.26789337 C609.26085832 57.27727159 605.71713788 57.27226756 602.17324829 57.26742554 C599.62096979 57.27115856 597.06869243 57.27575868 594.51641691 57.28115618 C588.94903415 57.29148276 583.3816862 57.29429538 577.81429482 57.29224396 C569.53547112 57.28920085 561.25668608 57.29750256 552.97786989 57.30799321 C537.33349853 57.32736263 521.68914026 57.33296252 506.04475833 57.33410732 C493.96630283 57.33502542 481.88785248 57.33913693 469.80939865 57.34550858 C466.33616142 57.34730358 462.86292418 57.34908321 459.38968694 57.35085833 C458.52629945 57.35130043 457.66291196 57.35174252 456.77336122 57.35219802 C432.47888551 57.3645111 408.18441159 57.37239867 383.88993263 57.37151146 C382.51523309 57.37146472 382.51523309 57.37146472 381.11276184 57.37141704 C376.46743013 57.37125082 371.82209842 57.37105274 367.17676671 57.37084763 C366.25414006 57.37080774 365.33151341 57.37076785 364.38092838 57.37072675 C362.51515166 57.37064587 360.64937493 57.37056228 358.7835982 57.37047596 C329.74829024 57.36925016 300.71302897 57.38426704 271.67773438 57.41162109 C239.07842805 57.44231992 206.47915241 57.45955493 173.87983072 57.45769465 C170.40596477 57.45754538 166.93209883 57.45744797 163.45823288 57.45738602 C162.60283935 57.45736271 161.74744582 57.4573394 160.86613127 57.45731538 C147.0806303 57.45725375 133.29516975 57.47004365 119.50968081 57.48725055 C105.6630578 57.50417669 91.81649414 57.50620461 77.96986653 57.4930319 C69.73690114 57.48562258 61.50411567 57.48935954 53.27116921 57.50891658 C47.1337455 57.52226773 40.99651536 57.51485977 34.85910086 57.49917014 C32.36853817 57.49607615 29.87795622 57.4998217 27.3874162 57.51089029 C24.01595509 57.52488808 20.64543921 57.51452173 17.27401161 57.49777794 C16.29491439 57.5077143 15.31581718 57.51765066 14.30705035 57.52788812 C10.23353477 57.48477491 7.62676067 57.33104778 3.98287427 55.40638888 C-6.39341318 42.8138695 0 2.10957647 0 0 Z " fill="#FEFEFE" transform="translate(197,557)"/>
<path d="M0 0 C5.11407294 3.11477932 9.12171458 7.2477509 11 13 C11.6900655 17.34129812 11.59501731 19.96475509 9.36328125 23.84765625 C6.73135055 27.35834728 3.88252603 30.37811924 0.75 33.4375 C0.16935791 34.01097168 -0.41128418 34.58444336 -1.00952148 35.17529297 C-4.54099694 38.64034106 -8.13939915 41.99056757 -11.91015625 45.1953125 C-14.66133218 47.57109433 -17.32828587 50.03586576 -20 52.5 C-23.27829507 55.51953561 -26.56581768 58.5220284 -29.9375 61.4375 C-33.5295869 64.54964209 -37.01550137 67.7687396 -40.5 71 C-44.60586307 74.80712755 -48.74128024 78.5631327 -52.9765625 82.2265625 C-55.51501171 84.45138092 -58.00641776 86.72503319 -60.5 89 C-63.61907011 91.84524228 -66.74755391 94.6719958 -69.9375 97.4375 C-73.34688518 100.39883456 -76.67796376 103.44150305 -80 106.5 C-83.93225613 110.1203077 -87.89856529 113.6909889 -91.94140625 117.1875 C-94.49862142 119.43901393 -96.99485701 121.75323239 -99.5 124.0625 C-113.23920214 136.58213357 -113.23920214 136.58213357 -120.375 137.375 C-128.26873246 136.55840699 -132.86109127 130.50010878 -137.68896484 124.66064453 C-141.89790044 119.32932611 -145.69425828 113.67905347 -149.55078125 108.09130859 C-151.65078245 105.06088234 -153.79036894 102.05963747 -155.9375 99.0625 C-156.33445068 98.50723633 -156.73140137 97.95197266 -157.14038086 97.37988281 C-160.02248109 93.35260369 -162.91991326 89.33647465 -165.8215332 85.32324219 C-166.93496517 83.78209038 -168.04679899 82.23978263 -169.15698242 80.69628906 C-171.74439767 77.10156536 -174.34784799 73.52387872 -177.015625 69.98828125 C-177.71075195 69.05338867 -177.71075195 69.05338867 -178.41992188 68.09960938 C-179.2749308 66.95080883 -180.14006699 65.8094398 -181.01757812 64.67773438 C-183.84541654 60.84508028 -184.85926143 57.75263314 -185 53 C-183.24965843 47.17386305 -180.22702241 42.24923015 -175 39 C-172.39025816 37.69512908 -170.29051916 37.64762122 -167.375 37.5 C-165.87066406 37.39171875 -165.87066406 37.39171875 -164.3359375 37.28125 C-156.39022235 38.99320736 -151.39662159 46.63504364 -147 53 C-146.46238037 53.76111084 -145.92476074 54.52222168 -145.37084961 55.30639648 C-143.56966657 57.8634674 -141.78464066 60.43136071 -140 63 C-138.60592473 64.99120473 -137.21137759 66.98207917 -135.81640625 68.97265625 C-129.79041898 77.59141106 -123.79716352 86.22514717 -118 95 C-104.76498222 83.77900666 -92.09362691 71.90582932 -79.42700195 60.05200195 C-75.21312396 56.11483366 -70.94852728 52.24137487 -66.6484375 48.3984375 C-62.61407878 44.7449032 -58.64836711 41.01869331 -54.67456055 37.29956055 C-49.77630754 32.71752309 -44.84790282 28.1707928 -39.89453125 23.6484375 C-37.92669052 21.84790307 -35.96534078 20.04231917 -34.01171875 18.2265625 C-11.17307805 -2.95855173 -11.17307805 -2.95855173 0 0 Z " fill="#010101" transform="translate(643,267)"/>
</svg>
